PathFileType	4	(X/Y/Z)	E:\Qualisys_Data\Carbon_Farble_Plate\Data\Amateur_Runner\S2\T3\S2T3V12_c3d.trc
DataRate	CameraRate	NumFrames	NumMarkers	Units	OrigDataRate	OrigDataStartFrame	OrigNumFrames
200.000000	200.000000	4	39	mm	200.000000	276	316
Frame#	Time	LSHO			RSHO			LICST			RICST			LASIS			LHEEL			RASIS			LTROC			RTROC			SACR			LTH1			LSK4			LTH2			LTH3			RHM5			LSK2			LTH4			RTH1			LTOE			RTH2			RTH3			RTH4			LLEP			RLEP			LSK1			LSK3			RSK1			LHM5			RSK2			LFT1			RSK3			RSK4			LLME			RLME			RTOE			RHEEL			RFT1			RFT2			LFT2			
		X1	Y1	Z1	X2	Y2	Z2	X3	Y3	Z3	X4	Y4	Z4	X5	Y5	Z5	X6	Y6	Z6	X7	Y7	Z7	X8	Y8	Z8	X9	Y9	Z9	X10	Y10	Z10	X11	Y11	Z11	X12	Y12	Z12	X13	Y13	Z13	X14	Y14	Z14	X15	Y15	Z15	X16	Y16	Z16	X17	Y17	Z17	X18	Y18	Z18	X19	Y19	Z19	X20	Y20	Z20	X21	Y21	Z21	X22	Y22	Z22	X23	Y23	Z23	X24	Y24	Z24	X25	Y25	Z25	X26	Y26	Z26	X27	Y27	Z27	X28	Y28	Z28	X29	Y29	Z29	X30	Y30	Z30	X31	Y31	Z31	X32	Y32	Z32	X33	Y33	Z33	X34	Y34	Z34	X35	Y35	Z35	X36	Y36	Z36	X37	Y37	Z37	X38	Y38	Z38	X39	Y39	Z39	

277	1.38	2189.476806640625	1472.218872070312	-497.9360046386719	2134.304443359375	1466.043579101562	-188.6719055175781	2093.280517578125	1015.666625976562	-472.8153381347656	2095.52587890625	1023.589721679688	-173.4843902587891	2144.64111328125	962.9498901367188	-457.5855712890625	1668.965576171875	234.6061553955078	-367.32666015625	2154.88818359375	976.077392578125	-199.8591461181641	2000.391967773438	905.824951171875	-465.7355651855469	2028.4072265625	921.8367309570312	-153.0416870117188	2002.333984375	1063.258911132812	-330.8818359375	2062.306396484375	648.5501708984375	-472.4146728515625	1792.7822265625	362.0827026367188	-450.8014221191406	1982.8720703125	670.75244140625	-475.5342102050781	2034.039794921875	551.7388305664062	-449.3553466796875	2166.361083984375	105.1709899902344	-159.1574096679688	1851.486938476562	442.0752868652344	-466.479736328125	1952.654052734375	577.55419921875	-450.6790466308594	2254.63916015625	701.4124755859375	-157.7055511474609	1819.322265625	45.51921844482422	-369.0227661132812	2181.53271484375	678.14794921875	-146.5531158447266	2281.7998046875	604.8186645507812	-174.8556976318359	2205.216064453125	585.2839965820312	-163.3774719238281	1972.083740234375	521.4046630859375	-452.5469360351562	2231.3212890625	556.3564453125	-164.1268615722656	1915.371704101562	395.9354248046875	-457.0200805664062	1855.951538085938	314.9184265136719	-447.08984375	2219.052734375	430.6510620117188	-160.7960205078125	1764.862670898438	70.49943542480469	-430.34716796875	2146.107421875	464.6898803710938	-161.267578125	1655.164916992188	210.9471740722656	-336.0064697265625	2177.559326171875	338.2655334472656	-173.1701507568359	2106.780029296875	374.62646484375	-177.1264801025391	1722.78369140625	192.8226165771484	-420.3142395019531	2068.8056640625	183.8770446777344	-207.4327392578125	2243.61376953125	102.6148223876953	-202.0220489501953	2014.291015625	180.5225982666016	-275.8476867675781	2028.0078125	153.9515380859375	-302.8328857421875	2002.479736328125	157.2992553710938	-256.3085021972656	1645.840209960938	208.93896484375	-387.5877685546875
278	1.385	2205.320068359375	1475.45947265625	-496.1755981445312	2149.034423828125	1469.068969726562	-188.0977935791016	2109.752685546875	1018.595581054688	-472.1408996582031	2112.162109375	1026.850463867188	-173.2880249023438	2161.109130859375	965.1851806640624	-456.6789855957031	1682.315185546875	242.2420501708984	-370.9496459960938	2171.2138671875	978.845947265625	-199.4953918457031	2015.86328125	909.8134155273438	-465.2901916503906	2044.142333984375	925.2232055664062	-153.1068572998047	2018.492065429688	1066.465942382812	-330.5461120605469	2073.837890625	652.604248046875	-472.7034301757812	1802.388793945312	367.2865905761719	-451.9842224121094	1994.502075195312	675.9445190429688	-475.519775390625	2044.07763671875	555.6162719726562	-449.7865905761719	2202.150634765625	102.8027877807617	-159.3290557861328	1861.083862304688	447.6096801757812	-467.2582397460938	1962.899169921875	583.1402587890625	-450.7022399902344	2269.156494140625	702.8895263671875	-157.8531799316406	1822.998413085938	44.28725051879883	-369.2913513183594	2195.5107421875	680.2899780273438	-147.5216827392578	2295.233154296875	605.8619995117188	-174.3367309570312	2218.1826171875	587.2120971679688	-163.7812042236328	1982.552368164062	525.9224853515625	-452.3871765136719	2245.356201171875	557.6679077148438	-163.9039459228516	1924.819458007812	401.3644714355469	-458.7535400390625	1865.6513671875	320.0194702148438	-449.1674194335938	2237.955810546875	431.1792907714844	-159.7462310791016	1770.265869140625	72.5577621459961	-430.9057922363281	2163.498291015625	461.0013732910156	-160.4268341064453	1667.071533203125	220.4270324707031	-338.8296203613281	2200.9365234375	336.7179565429688	-172.2870788574219	2128.6689453125	369.3274230957031	-176.3974151611328	1732.59033203125	197.6974334716797	-422.03662109375	2100.34716796875	176.3642120361328	-206.1846771240234	2279.07568359375	104.6559066772461	-201.6529235839844	2045.734619140625	170.6637725830078	-274.8467407226562	2060.551025390625	144.6480560302734	-302.7405395507812	2035.799560546875	145.732177734375	-257.0517272949219	1657.8095703125	217.7628631591797	-390.5216979980469
279	1.39	2223.047119140625	1478.709716796875	-494.5377502441406	2163.89208984375	1471.893188476562	-187.5413360595703	2126.40234375	1021.363098144531	-471.4691467285156	2128.256591796875	1029.266845703125	-172.8960571289062	2177.35107421875	968.0546264648438	-456.6010131835938	1696.004272460938	250.1351928710938	-374.3082580566406	2187.156005859375	981.3234252929688	-199.1980133056641	2031.824584960938	913.06640625	-464.9653625488281	2060.309326171875	928.5181274414062	-152.5672760009766	2034.739379882812	1069.536254882812	-330.1552734375	2085.377197265625	656.407470703125	-472.9933776855469	1812.846557617188	372.2471923828125	-453.2463989257812	2006.118896484375	680.5440673828125	-475.010498046875	2054.243408203125	560.0743408203125	-450.8466796875	2237.43212890625	101.0621109008789	-159.0895385742188	1871.251831054688	452.4971313476562	-467.4683227539062	1973.7255859375	588.1419067382812	-450.7403564453125	2283.19287109375	704.1107177734375	-157.9358062744141	1827.221313476562	43.35006713867188	-370.0052185058594	2208.668701171875	682.6134033203125	-148.1091613769531	2308.445556640625	607.1513061523438	-173.9287261962891	2231.26416015625	588.69189453125	-164.3982086181641	1992.804931640625	530.9584350585938	-453.1277465820312	2258.6669921875	558.1785888671875	-164.6750793457031	1934.989379882812	406.0270080566406	-459.6766357421875	1875.587646484375	325.1919250488281	-450.6798400878906	2256.58740234375	430.9531860351562	-158.9349822998047	1774.506103515625	74.76197814941406	-431.8694763183594	2180.731689453125	456.999755859375	-160.0969390869141	1679.624389648438	229.4988403320312	-341.9163818359375	2224.02734375	334.7759704589844	-171.0833129882812	2150.26806640625	364.1414489746094	-175.7567749023438	1742.602661132812	202.1193542480469	-425.0390930175781	2131.890869140625	169.6168823242188	-205.4784088134766	2314.2919921875	107.353630065918	-201.2932739257812	2077.2822265625	161.1535034179688	-273.5675048828125	2092.98193359375	135.3209838867188	-300.8548889160156	2068.95361328125	135.517822265625	-255.3802795410156	1670.516357421875	226.9291687011719	-394.4473571777344
280	1.395	2239.37353515625	1481.623413085938	-492.8883666992188	2179.177734375	1474.397705078125	-186.8272705078125	2143.201416015625	1023.804016113281	-471.1275024414062	2144.5419921875	1031.776611328125	-172.4297180175781	2193.841064453125	970.7088623046876	-456.2972106933594	1710.122924804688	257.6214904785156	-377.7463989257812	2203.49951171875	983.447265625	-198.9253387451172	2047.502807617188	916.3373413085938	-464.7089538574219	2076.086181640625	931.2088012695312	-152.6783905029297	2050.74951171875	1072.35888671875	-329.558837890625	2096.388916015625	660.1121826171875	-472.2769470214844	1822.91796875	377.6951293945312	-454.3910217285156	2018.091674804688	685.0137939453125	-474.6863098144531	2065.123291015625	563.7866821289062	-451.099365234375	2272.6748046875	100.08544921875	-158.5554351806641	1881.54541015625	457.5213317871094	-468.0867614746094	1984.79736328125	592.7838134765625	-451.0126953125	2296.30078125	704.8317260742188	-157.6461639404297	1830.74267578125	42.41635513305664	-371.0618591308594	2221.044677734375	682.9940185546875	-149.6429901123047	2321.79833984375	607.635498046875	-173.3097686767578	2243.969970703125	589.7415771484375	-165.0264282226562	2003.440063476562	535.288330078125	-453.2530212402344	2271.97998046875	558.6892700195312	-164.8325042724609	1945.372802734375	410.9779052734375	-460.1130065917969	1885.952392578125	330.1873474121094	-452.4640808105469	2275.324462890625	430.5337219238281	-158.5222015380859	1779.908203125	76.55912780761719	-433.2729797363281	2198.28662109375	453.6872253417969	-159.6852569580078	1692.714965820312	238.0994720458984	-345.1566162109375	2247.218017578125	333.0617980957031	-170.5071563720703	2172.2197265625	358.9568786621094	-174.7904663085938	1753.284545898438	207.4278869628906	-427.5095520019531	2163.343994140625	163.1939849853516	-204.3494720458984	2348.785888671875	110.7333984375	-201.4748992919922	2108.916259765625	152.4834442138672	-271.5970153808594	2125.9150390625	126.6699295043945	-299.1935424804688	2101.534912109375	126.2853546142578	-254.1146392822266	1683.63330078125	235.7182006835938	-397.512451171875
